<svg id="_x31__x2C_5" enable-background="new 0 0 24 24" height="512" viewBox="0 0 24 24" width="512" xmlns="http://www.w3.org/2000/svg"><path d="m15.121 22.679c-1.064-1.064-1.096-2.095-1.096-2.146-.002-.223-.182-.403-.405-.403h-3.256c-.223 0-.405.184-.405.407 0 .044-.014 1.075-1.08 2.141-.116.116-.151.29-.088.441.062.151.21.25.374.25h5.67c.164 0 .312-.098.374-.25s.028-.324-.088-.44z" fill="#90a4ae"/><path d="m23.25 16.75v2.5c0 .55-.45 1-1 1h-20.5c-.55 0-1-.45-1-1v-2.5z" fill="#607d8b"/><path d="m23.25 5.75v11h-22.5v-11c0-.55.45-1 1-1h20.5c.55 0 1 .45 1 1z" fill="#eceff1"/><path d="m14.385 8.28h-5.67c-.372 0-.696-.253-.786-.613l-.81-3.24c-.06-.243-.006-.499.148-.695.153-.197.388-.312.638-.312h6.795l1.305.765-.841 3.508c-.1.347-.417.587-.779.587z" fill="#4caf50"/><path d="m15.25 9h-7.5c-.352 0-.656-.244-.732-.587l-1-4.5c-.049-.223.004-.455.147-.633.142-.176.357-.28.585-.28h9.124l.651-2.443c.106-.399.518-.64.918-.531.4.106.638.518.531.918l-2 7.5c-.087.327-.384.556-.724.556zm-6.898-1.5h6.322l.8-3h-7.789z"/><circle cx="10" cy="11" r="1"/><circle cx="14" cy="11" r="1"/><path d="m22.25 21h-20.5c-.965 0-1.75-.785-1.75-1.75v-13.5c0-.965.785-1.75 1.75-1.75h1.5c.414 0 .75.336.75.75s-.336.75-.75.75h-1.5c-.138 0-.25.112-.25.25v13.5c0 .138.112.25.25.25h20.5c.138 0 .25-.112.25-.25v-13.5c0-.138-.112-.25-.25-.25h-2.75c-.414 0-.75-.336-.75-.75s.336-.75.75-.75h2.75c.965 0 1.75.785 1.75 1.75v13.5c0 .965-.785 1.75-1.75 1.75z"/><path d="m23.25 17.5h-22.5c-.414 0-.75-.336-.75-.75s.336-.75.75-.75h22.5c.414 0 .75.336.75.75s-.336.75-.75.75z"/><path d="m15.25 24h-6.5c-.303 0-.577-.183-.693-.463s-.052-.602.163-.817c1.041-1.041 1.265-2.553 1.267-2.567.055-.411.43-.704.841-.646.411.054.7.431.646.841-.008.059-.147 1.066-.744 2.152h3.523c-.591-1.08-.738-2.088-.746-2.147-.057-.41.229-.788.64-.846.412-.058.789.229.846.639.007.045.232 1.469 1.184 2.487.195.136.323.361.323.617 0 .414-.336.75-.75.75z"/></svg>