<svg height="512" viewBox="0 0 58 58" width="512" xmlns="http://www.w3.org/2000/svg"><g id="037---Sushi" fill="none"><path id="Shape" d="m15.5 3c-6.35 0-11.5 2.69-11.5 6v22c0 4.75 7 7.26 12.08 7 .67-6.09 5.3-15.74 10.92-18.9v-10.1c0-3.31-5.15-6-11.5-6z" fill="#ecf0f1"/><path id="Shape" d="m42.5 0c-6.35 0-11.5 2.69-11.5 6v12c6.62.12 12.29 9.81 14.26 16.8.9295989-.1412329 1.8460172-.3586314 2.74-.65 3.58-1.15 6-3.49 6-6.15v-22c0-3.31-5.15-6-11.5-6z" fill="#ecf0f1"/><path id="Shape" d="m4 52h10v5c0 .5522847-.4477153 1-1 1h-8c-.55228475 0-1-.4477153-1-1z" fill="#805333"/><path id="Shape" d="m44 52h10v5c0 .5522847-.4477153 1-1 1h-8c-.5522847 0-1-.4477153-1-1z" fill="#805333"/><path id="Shape" d="m58 48v5c0 .5522847-.4477153 1-1 1h-56c-.55228475 0-1-.4477153-1-1v-5z" fill="#a56a43"/><path id="Shape" d="m58 23v27h-58v-27c0-.5522847.44771525-1 1-1h56c.5522847 0 1 .4477153 1 1z" fill="#cb8252"/><path id="Shape" d="m46 39.25c0 4.6-3.7 6.09-9 6.55h-12c-5.79-.5-9.55-2.17-8.92-7.81.67-6.09 5.3-15.74 10.92-18.9 1.2105932-.7175152 2.5927521-1.0941535 4-1.09 8.12.07 15 14.94 15 21.25z" fill="#ecf0f1"/><g fill="#a56a43"><path id="Shape" d="m58 45v2h-6c-.5522847 0-1-.4477153-1-1s.4477153-1 1-1z"/><path id="Shape" d="m4 46c0 .5522847-.44771525 1-1 1h-3v-2h3c.55228475 0 1 .4477153 1 1z"/><path id="Shape" d="m58 41v2h-4c-.5522847 0-1-.4477153-1-1s.4477153-1 1-1z"/><path id="Shape" d="m9 42c0 .5522847-.44771525 1-1 1h-8v-2h8c.55228475 0 1 .4477153 1 1z"/></g><path id="Shape" d="m37 34v11.8c-3.9954448.26997-8.0045552.26997-12 0v-11.8c0-1.6568542 1.3431458-3 3-3h6c1.6568542 0 3 1.3431458 3 3z" fill="#4c8056"/><path id="Shape" d="m21.37 9.94c-3.7845264 1.4199499-7.9554736 1.4199499-11.74 0-.39548448-.1435417-.65882556-.51927183-.65882556-.94s.26334108-.7964583.65882556-.94c3.7845264-1.41994993 7.9554736-1.41994993 11.74 0 .3954845.1435417.6588256.51927183.6588256.94s-.2633411.7964583-.6588256.94z" fill="#f29c1f"/><path id="Shape" d="m21 14.27v11c-2.5152258 3.8510197-4.1915747 8.1884022-4.92 12.73-4.97.25-12.08-2.22-12.08-7v-22c0 4.77 9.76 7.36 17 5.27z" fill="#464f5d"/><path id="Shape" d="m27 9v10.09c-2.4540125 1.5475956-4.5094084 3.6509508-6 6.14v-11c3.58-.98 6-2.96 6-5.23z" fill="#393f4a"/><path id="Shape" d="m48.37 6.94c-3.7845264 1.41994993-7.9554736 1.41994993-11.74 0-.3954845-.1435417-.6588256-.51927183-.6588256-.94s.2633411-.7964583.6588256-.94c3.7845264-1.41994993 7.9554736-1.41994993 11.74 0 .3954845.1435417.6588256.51927183.6588256.94s-.2633411.7964583-.6588256.94z" fill="#f29c1f"/><path id="Shape" d="m54 6v22c0 2.66-2.42 5-6 6.15v-22.88c3.58-1.02 6-3 6-5.27z" fill="#393f4a"/><path id="Shape" d="m48 11.27v22.88c-.8939828.2913686-1.8104011.5087671-2.74.65-2-7-7.64-16.68-14.26-16.8v-12c0 4.77 9.76 7.36 17 5.27z" fill="#464f5d"/></g></svg>