<svg xmlns="http://www.w3.org/2000/svg" viewBox="0 0 1048.76 1342.05">
  <g id="Layer_2" data-name="Layer 2">
    <g id="Layer_1-2" data-name="Layer 1">
      <g>
        <g>
          <path d="M657.62,513.08c-13.92-8.35-13.71,46.27-59.12,7.07a55.15,55.15,0,0,0-22.19-11.62c-4.6-8.57-19.6-36.77-31.69-62.29-14.46-30.52-3.53-59.12,16.06-70.37S498,314.5,524.38,443c0,0,15.74,47.88,14.14,57.2s-24.74,9.32-24.74,9.32h0c-14.85-3.95-42.38-7.65-63.52,10.6-45.42,39.2-45.2-15.42-59.12-7.07s-15.43,48.56,33,57.12,100.25-23.06,100.25-23.06,51.85,31.63,100.25,23.06S671.55,521.43,657.62,513.08Z" style="fill: #f9f9f9"/>
          <path d="M572.73,451.64c9,2.09,23.11-15.07,45.62-21.19s25.06,5.95,32,10.37,11.72.85,11.72.85c5.78-10.37,0-23.45,0-23.45-29.23-44.18-90.05,15.29-90.05,15.29C565.75,439.12,568.72,450.71,572.73,451.64Z" style="fill: #f9f9f9"/>
          <path d="M487.13,366.85c5.94,3.91,8.12-30.71-1.35-39.64-10.47-9.88-34.59-17.28-60.73-4.07-41.34,20.88-56.57,68.75-51.34,76.15s39.15-33.08,62.65-40.47C455.19,352.9,474.63,358.61,487.13,366.85Z" style="fill: #f9f9f9"/>
          <path d="M386.66,418.22s-5.77,13.08,0,23.45c0,0,4.75,3.56,11.72-.85s9.5-16.48,32-10.37S467,453.73,476,451.64c4-.93,7-12.52.68-18.13C476.71,433.51,415.88,374,386.66,418.22Z" style="fill: #f9f9f9"/>
          <path d="M892.87,920.18c-22.66-63.67-58.29-127.24-93-165.92C776.31,728,738.4,727.12,708,726.41c-12-.28-23.31-.54-31.9-2.23-9.65-1.88-22.95-12.11-28.6-27.32-6.55-17.61-1.7-37.49,14-57.48l0,0a190.85,190.85,0,0,0,53.89-119.61c25.94-17.61,61.6-58,50.82-114.75-5.64-29.71-17.81-44.78-36.17-44.78a32.3,32.3,0,0,0-14.09,3.45V290.72h-1.27a214.09,214.09,0,0,0-25.8-75.86C753.45,97.36,728,44.42,694.53,20.69c-67-47.54-217.74-5.21-277.29,47-34.55-9.19-75.95-14.29-116.46-4.84-81.48,19-196,101.52-195.41,225.43.17,38.53,17.17,56,31.4,63.91,10.61,5.87,23.1,8.28,36.47,8.28,51.54,0,116.11-35.84,135.48-47.33,8.4,13.55,15.24,29.62,17.18,48a28.69,28.69,0,0,0-12-.47c-23.67,4.15-29.41,34.41-31.3,44.35-10.78,56.74,24.88,97.14,50.83,114.75a191.25,191.25,0,0,0,72.27,136.19c2.11,4.46,6.31,16.13.12,28.81-7.45,15.23-35.38,42.6-138.73,54.66-46.68,5.45-81.06,34.13-94.32,78.68-23,77.15,16.32,207,155.13,324.78,2.06,17.81,13.56,107.75,45.66,109.69l-5.95-87.26q18.88,5.71,42.2,5.73c43.68,0,99-15.1,165.4-45.12,18,6.55,39.22,11.51,62.37,14.73h0c33.37,8.16,34.81,84.43,23.67,103.39-1.59,2.7-1.08,8.56,7,7.78,32.6-3.16,118.53-34.88,128-50.13,6.52-10.53,8.12-41.5,8.25-67,38.78-8.41,84.35-24.58,101.28-55.24C928.92,1037.45,907.63,961.63,892.87,920.18ZM686.81,994.36c-8.33-17.4-23-37.45-48.85-50.76l.49-.19c8.41.73,33.95,4.43,50.93,22.59,11.4,12.22,17.19,29.24,17.25,50.65-3.31,2.06-6.66,4.15-10.08,6.25A132.43,132.43,0,0,0,686.81,994.36Zm-260-4.38c-22.9,6-39.64,7.89-51.59,7.89-17,0-29.23-4.13-31.19-10.52-2.13-6.92,4.83-23.41,27-38.43,13.79-9.37,31.14-14.12,51.55-14.12,32.29,0,65.92,11.66,89.46,22ZM315.44,411.23c1.71-9,3.64-13.87,4.93-16.33,3.46,2.57,8.49,8.22,12.5,14.06v65.6C320.87,460.47,310.11,439.31,315.44,411.23Zm398.36,532a94.06,94.06,0,0,0-14.06-12.27c13.62.33,25.44,3.43,35.35,9.34,17.43,10.37,25.56,27.71,29.09,38.38-7.69,5.39-16.29,11.27-25.62,17.45C735.35,975.12,727.07,957.4,713.8,943.19Zm138.33,100.08c-13.91,21.85-95.76,20.56-95.76,20.56l66.39-66.37c15.06,1,19.38,3.89,27.89,6.74C854.74,1022.63,856,1037.19,852.13,1043.27ZM524.38,663.89c-87.17,0-158.09-70.92-158.09-158.09v-198A485,485,0,0,1,551.8,271.44a490.7,490.7,0,0,1,70.59,5.1,99.56,99.56,0,0,1,8,6.47c13.1,11.82,18.05,32.23,19.89,51.61A94.39,94.39,0,0,0,637.85,327c-26.14-13.2-50.27-5.8-60.73,4.08-9.47,8.93-7.29,43.54-1.35,39.64,12.49-8.25,31.94-14,50.76-8,18.56,5.84,42.23,21,55.94,39.54h0V505.8C682.48,593,611.55,663.89,524.38,663.89ZM442,678.65a190.54,190.54,0,0,0,82.4,18.66c3.75,0,7.46-.14,11.16-.36v0c7.48-.12,11.11,5.51,11.54,7.6a38.82,38.82,0,0,1,.33,16.17c-.42,2.48-2.31,4.08-10,6.65-36-3.58-75.48-15.42-102.8-25.61.57-1,1.12-2.1,1.62-3.18A64.15,64.15,0,0,0,442,678.65Zm57.94,77c.89.17,1.78.37,2.68.54,20.79,4.13,38.81,5.94,54.45,5.94,19,0,34.49-2.68,47.07-7.08,12.71,14.16,37.12,30.49,81.57,28.63C762.8,780.42,790.44,838.26,802,864c6.37,14.14,25.13,60.4,38.39,102.78C812.18,961.22,788,943.19,788,943.19h0c-54.16-150.86-92.94-118.92-92.94-118.92.36.59,22,36.79,41.84,80-28.85-10.83-64.66-8.68-106.8,6.53L598,923.3c-3-10.43-13.18-18.14-25.34-18.14-14.51,0-26.26,10.91-26.26,24.38a22.76,22.76,0,0,0,1.18,7.25,361.84,361.84,0,0,0-46.35-20.23l-47.7-81.08,38.79-31.33Zm-187.18-492c-.76-.88-1.51-1.74-2.25-2.57-44.46-44.41-53-7.56-40.59,6.37,3.79,4.25,10.65,10.63,18.31,19C247.39,310.18,180.6,338.22,153,322.9c-3.48-1.92-14.06-7.79-14.18-34.82-.52-115.61,114-179.77,169.58-192.73,57.5-13.41,119.33,10.06,152.53,23.47C523.74,144.19,626,80.25,569.68,61.62s-83.93,31.12-105,22.28c-2.84-1.18-5.83-2.39-8.94-3.61,31.71-20.65,80.63-38.44,126.08-44.75,63.36-6,61.47,47.18-19.36,119.37v.14a99.75,99.75,0,0,1-14.06,7.29c-29.81,12.47-66.34,8.24-108.55-12.57C357,109,293.86,132.92,255.46,160.22,226.16,181,207,206.63,198.19,219.93c-3.41,5.17,4.38,18.09,23.82,4.59,17.3-12,18.3-12.54,52.81-37.06,45.07-32.05,95.63-34.64,150.27-7.71q40.68,20,76.58,22.6l.14.06c36.28,3.05,83.83,26.19-9.57,38.92h.06a514.22,514.22,0,0,0-125,30.19.76.76,0,0,0,0-.11C337.05,284,321.81,274.09,312.74,263.58Zm41.14,857.47C223.74,1012.6,185.37,892.92,204.81,827.62c9.54-32,32.42-51.09,66.16-55,65.08-7.59,112-22.38,140.19-44.11a573.48,573.48,0,0,0,56.19,19.12l-6,38.64L410.15,827.6l45.13,76.73a194.79,194.79,0,0,0-32.77-3,155.84,155.84,0,0,0-17.24,1c-11.13-21.12-39.21-66.51-67-48.06,7.48,16,22,40.49,32,57.08a109,109,0,0,0-18.15,9.89c-31.9,21.65-47.67,51.44-40.15,75.9,3.92,12.74,17.33,34.13,63.14,34.13h0c41.58,0,101.26-18.23,173.05-52.76l39.29-15.3c32.8,3.85,55.9,18.79,68.64,44.55a103,103,0,0,1,9.63,33.49C555.81,1105.21,411.77,1169.29,353.88,1121.05Z" style="fill: #f9f9f9"/>
          <path d="M515.26,870.17c14.49,0,26.26-10.91,26.26-24.37s-11.77-24.37-26.26-24.37S489,832.34,489,845.8,500.76,870.17,515.26,870.17Z" style="fill: #f9f9f9"/>
        </g>
        <path d="M524.38,1342.05C235.23,1342.05,0,1106.82,0,817.68A524.06,524.06,0,0,1,243.3,374.92c17.88-13.63,35.94,13.77-16.47,55.12C107.72,521.89,35.69,665.75,35.69,817.68c0,269.47,219.22,488.69,488.69,488.69s488.69-219.22,488.69-488.69c0-154.31-71.38-296.85-192.89-389.08-31.64-24.09-33.87-68.7,7.66-38.64,138.85,98.45,220.92,256.32,220.92,427.72C1048.76,1106.82,813.53,1342.05,524.38,1342.05Z" style="fill: #f9f9f9"/>
      </g>
    </g>
  </g>
</svg>
